# xmcd
#
# Track frame offsets: 
#        150
#        16142
#        30052
#        64378
#        83017
#        104275
#        127874
#        142299
#        160799
#
# Disc length: 2418 seconds
#
# Revision: 0
# Processed by: cddbd v1.5.2PL0 Copyright (c) Steve Scherf et al.
# Submitted via: ExactAudioCopy v1.0b1
#
DISCID=67097009
DTITLE=Albert Collins - Don't Lose Your Cool
DYEAR=1983
DGENRE=Texas Blues
TTITLE0=Get To Gettin'
TTITLE1=My Mind Is Trying To Leave Me
TTITLE2=Broke
TTITLE3=Don't Lose Your Cool
TTITLE4=When A Guitar Plays The Blues
TTITLE5=But I Was Cool!
TTITLE6=Melt Down
TTITLE7=Ego Trip
TTITLE8=Quicksand
EXTD=
EXTT0=
EXTT1=
EXTT2=
EXTT3=
EXTT4=
EXTT5=
EXTT6=
EXTT7=
EXTT8=
PLAYORDER=
